# Blender 4.4.3
# www.blender.org
mtllib skyBox.mtl
o Cube
v -1.000000 -1.000000 1.000000
v -1.000000 1.000000 1.000000
v -1.000000 -1.000000 -1.000000
v -1.000000 1.000000 -1.000000
v 1.000000 -1.000000 1.000000
v 1.000000 1.000000 1.000000
v 1.000000 -1.000000 -1.000000
v 1.000000 1.000000 -1.000000
vn 1.0000 -0.0000 -0.0000
vn -0.0000 -0.0000 1.0000
vn -1.0000 -0.0000 -0.0000
vn -0.0000 -0.0000 -1.0000
vn -0.0000 1.0000 -0.0000
vn -0.0000 -1.0000 -0.0000
vt 0.750000 0.377904
vt 1.000000 0.625000
vt 1.000000 0.377904
vt 0.500000 0.376815
vt 0.750000 0.625000
vt 0.750000 0.376815
vt 0.250000 0.375968
vt 0.500000 0.625000
vt 0.500000 0.375968
vt 0.000000 0.376457
vt 0.250000 0.625000
vt 0.250000 0.376457
vt 0.250000 0.127305
vt 0.498464 0.375000
vt 0.498463 0.127305
vt 0.500000 0.875000
vt 0.750000 0.375724
vt 0.750000 0.624695
vt 1.000000 0.624695
vt 0.500000 0.375000
vt 0.250000 0.375000
vt 0.000000 0.375000
vt 0.000000 0.624848
vt 0.250000 0.624848
vt 0.250000 0.125000
vt 0.250105 0.375000
vt 0.251953 0.625000
vt 0.251953 0.875000
s 0
usemtl Material.001
f 3/1/1 2/2/1 1/3/1
f 7/4/2 4/5/2 3/6/2
f 5/7/3 8/8/3 7/9/3
f 1/10/4 6/11/4 5/12/4
f 1/13/5 7/14/5 3/15/5
f 6/11/6 4/16/6 8/8/6
f 3/17/1 4/18/1 2/19/1
f 7/20/2 8/8/2 4/5/2
f 5/21/3 6/11/3 8/8/3
f 1/22/4 2/23/4 6/24/4
f 1/25/5 5/26/5 7/20/5
f 6/27/6 2/28/6 4/16/6
